<svg width="241" height="413" viewBox="0 0 241 413" fill="none" xmlns="http://www.w3.org/2000/svg">
<g clip-path="url(#clip0_18_244)">
<rect x="2" y="2" width="237" height="409" rx="22" fill="#122023" stroke="#E1FF01" stroke-width="4"/>
<path d="M120 365L120 67" stroke="#E1FF01"/>
<line x1="119.51" y1="363.9" x2="174.51" y2="93.9002" stroke="#E1FF01"/>
<path d="M119.532 363.824L231 86" stroke="#E1FF01"/>
<line x1="119.576" y1="363.736" x2="251.576" y2="151.736" stroke="#E1FF01"/>
<line x1="119.639" y1="363.654" x2="262.639" y2="214.654" stroke="#E1FF01"/>
<line x1="119.733" y1="363.577" x2="285.733" y2="258.577" stroke="#E1FF01"/>
<path d="M243.5 369.5C243.5 430.2 188.485 479.5 120.5 479.5C52.5152 479.5 -2.5 430.2 -2.5 369.5C-2.5 308.8 52.5152 259.5 120.5 259.5C188.485 259.5 243.5 308.8 243.5 369.5Z" fill="#122023" stroke="#E1FF01"/>
<path d="M239.5 373C239.5 431.768 186.275 479.5 120.5 479.5C54.7247 479.5 1.5 431.768 1.5 373C1.5 314.232 54.7247 266.5 120.5 266.5C186.275 266.5 239.5 314.232 239.5 373Z" stroke="#E1FF01"/>
<path d="M66.064 380.504C65.088 380.504 64.28 380.808 63.64 381.416C63.016 382.008 62.536 382.912 62.2 384.128C62.2 384.16 62.152 384.176 62.056 384.176C61.976 384.176 61.936 384.152 61.936 384.104C62 383.48 62.072 382.68 62.152 381.704C62.232 380.712 62.272 379.968 62.272 379.472C62.272 379.392 62.312 379.352 62.392 379.352C62.488 379.352 62.536 379.392 62.536 379.472C62.536 379.824 62.984 380 63.88 380C65.256 380.048 66.864 380.072 68.704 380.072C69.648 380.072 70.648 380.056 71.704 380.024L73.336 380C73.944 380 74.384 379.96 74.656 379.88C74.944 379.8 75.128 379.64 75.208 379.4C75.224 379.336 75.272 379.304 75.352 379.304C75.432 379.304 75.472 379.336 75.472 379.4C75.424 379.896 75.376 380.648 75.328 381.656C75.28 382.664 75.256 383.48 75.256 384.104C75.256 384.152 75.208 384.176 75.112 384.176C75.032 384.176 74.984 384.152 74.968 384.104C74.808 382.872 74.432 381.968 73.84 381.392C73.248 380.8 72.448 380.504 71.44 380.504C70.992 380.504 70.656 380.544 70.432 380.624C70.224 380.704 70.08 380.848 70 381.056C69.936 381.248 69.904 381.56 69.904 381.992V393.056C69.904 393.552 69.952 393.912 70.048 394.136C70.144 394.36 70.336 394.512 70.624 394.592C70.912 394.672 71.368 394.712 71.992 394.712C72.04 394.712 72.064 394.76 72.064 394.856C72.064 394.952 72.04 395 71.992 395C71.432 395 70.992 394.992 70.672 394.976L68.704 394.952L66.832 394.976C66.496 394.992 66.032 395 65.44 395C65.408 395 65.392 394.952 65.392 394.856C65.392 394.76 65.408 394.712 65.44 394.712C66.064 394.712 66.52 394.672 66.808 394.592C67.112 394.512 67.312 394.36 67.408 394.136C67.52 393.896 67.576 393.536 67.576 393.056V381.944C67.576 381.528 67.536 381.224 67.456 381.032C67.376 380.84 67.232 380.704 67.024 380.624C66.816 380.544 66.496 380.504 66.064 380.504ZM89.8118 394.712C89.8598 394.712 89.8838 394.76 89.8838 394.856C89.8838 394.952 89.8598 395 89.8118 395C89.3318 395 88.9558 394.992 88.6838 394.976L87.1478 394.952L85.6118 394.976C85.3398 394.992 84.9638 395 84.4838 395C84.4358 395 84.4118 394.952 84.4118 394.856C84.4118 394.76 84.4358 394.712 84.4838 394.712C84.9638 394.712 85.3078 394.672 85.5158 394.592C85.7398 394.512 85.8918 394.36 85.9718 394.136C86.0518 393.896 86.0918 393.536 86.0918 393.056V389.624H79.9958V393.056C79.9958 393.536 80.0358 393.896 80.1158 394.136C80.1958 394.36 80.3478 394.512 80.5718 394.592C80.7958 394.672 81.1478 394.712 81.6278 394.712C81.6598 394.712 81.6758 394.76 81.6758 394.856C81.6758 394.952 81.6598 395 81.6278 395C81.1478 395 80.7718 394.992 80.4998 394.976L78.9398 394.952L77.4518 394.976C77.1638 394.992 76.7718 395 76.2758 395C76.2438 395 76.2278 394.952 76.2278 394.856C76.2278 394.76 76.2438 394.712 76.2758 394.712C76.7558 394.712 77.1078 394.672 77.3318 394.592C77.5718 394.512 77.7318 394.36 77.8118 394.136C77.8918 393.896 77.9318 393.536 77.9318 393.056V385.712C77.9318 385.232 77.8918 384.88 77.8118 384.656C77.7318 384.432 77.5718 384.28 77.3318 384.2C77.1078 384.104 76.7638 384.056 76.2998 384.056C76.2678 384.056 76.2518 384.008 76.2518 383.912C76.2518 383.816 76.2678 383.768 76.2998 383.768L77.4518 383.792C78.0918 383.824 78.5878 383.84 78.9398 383.84C79.3558 383.84 79.8838 383.824 80.5238 383.792L81.6278 383.768C81.6598 383.768 81.6758 383.816 81.6758 383.912C81.6758 384.008 81.6598 384.056 81.6278 384.056C81.1638 384.056 80.8118 384.104 80.5718 384.2C80.3478 384.296 80.1958 384.464 80.1158 384.704C80.0358 384.928 79.9958 385.28 79.9958 385.76V389.048H86.0918V385.76C86.0918 385.28 86.0518 384.928 85.9718 384.704C85.8918 384.464 85.7398 384.296 85.5158 384.2C85.2918 384.104 84.9478 384.056 84.4838 384.056C84.4358 384.056 84.4118 384.008 84.4118 383.912C84.4118 383.816 84.4358 383.768 84.4838 383.768L85.5878 383.792C86.2278 383.824 86.7478 383.84 87.1478 383.84C87.5318 383.84 88.0438 383.824 88.6838 383.792L89.8118 383.768C89.8598 383.768 89.8838 383.816 89.8838 383.912C89.8838 384.008 89.8598 384.056 89.8118 384.056C89.3318 384.056 88.9798 384.104 88.7558 384.2C88.5318 384.28 88.3798 384.432 88.2998 384.656C88.2198 384.88 88.1798 385.232 88.1798 385.712V393.056C88.1798 393.536 88.2198 393.896 88.2998 394.136C88.3798 394.36 88.5318 394.512 88.7558 394.592C88.9798 394.672 89.3318 394.712 89.8118 394.712ZM100.61 393.704C100.658 393.704 100.698 393.736 100.73 393.8C100.778 393.848 100.786 393.896 100.754 393.944C99.6176 394.84 98.3776 395.288 97.0336 395.288C95.8336 395.288 94.8016 395.024 93.9376 394.496C93.0896 393.952 92.4496 393.248 92.0176 392.384C91.5856 391.52 91.3696 390.584 91.3696 389.576C91.3696 388.472 91.6336 387.464 92.1616 386.552C92.7056 385.624 93.4336 384.888 94.3456 384.344C95.2576 383.8 96.2496 383.528 97.3216 383.528C98.4736 383.528 99.3456 383.84 99.9376 384.464C100.546 385.072 100.85 385.88 100.85 386.888C100.85 387.08 100.826 387.216 100.778 387.296C100.746 387.376 100.674 387.416 100.562 387.416L93.6736 387.44C93.6256 387.792 93.6016 388.184 93.6016 388.616C93.6016 390.36 93.9936 391.768 94.7776 392.84C95.5776 393.896 96.6976 394.424 98.1376 394.424C98.5536 394.424 98.9776 394.368 99.4096 394.256C99.8416 394.128 100.234 393.944 100.586 393.704H100.61ZM96.5296 384.08C95.8416 384.08 95.2496 384.336 94.7536 384.848C94.2736 385.36 93.9376 386.072 93.7456 386.984L98.5696 386.912C98.5696 386 98.3936 385.304 98.0416 384.824C97.7056 384.328 97.2016 384.08 96.5296 384.08ZM129.136 380C129.168 380 129.184 380.048 129.184 380.144C129.184 380.24 129.168 380.288 129.136 380.288C128.56 380.288 128.032 380.504 127.552 380.936C127.072 381.368 126.672 381.992 126.352 382.808L121.696 394.976C121.68 395.04 121.592 395.072 121.432 395.072C121.272 395.072 121.184 395.04 121.168 394.976L118.072 388.352L115.552 394.976C115.536 395.04 115.448 395.072 115.288 395.072C115.128 395.072 115.04 395.04 115.024 394.976L108.952 381.992C108.616 381.288 108.328 380.832 108.088 380.624C107.864 380.4 107.52 380.288 107.056 380.288C107.008 380.288 106.984 380.24 106.984 380.144C106.984 380.048 107.008 380 107.056 380L107.68 380.024C108.032 380.056 108.432 380.072 108.88 380.072C109.776 380.072 110.592 380.056 111.328 380.024C111.552 380.008 111.832 380 112.168 380C112.216 380 112.24 380.048 112.24 380.144C112.24 380.24 112.216 380.288 112.168 380.288C111.736 380.288 111.424 380.336 111.232 380.432C111.056 380.512 110.968 380.672 110.968 380.912C110.968 381.184 111.112 381.632 111.4 382.256L115.984 392.024L117.712 387.56L115.096 381.992C114.808 381.4 114.536 380.968 114.28 380.696C114.04 380.424 113.752 380.288 113.416 380.288C113.368 380.288 113.344 380.24 113.344 380.144C113.344 380.048 113.368 380 113.416 380L113.992 380.024C114.344 380.056 114.696 380.072 115.048 380.072C115.8 380.072 116.464 380.056 117.04 380.024C117.2 380.008 117.408 380 117.664 380C117.712 380 117.736 380.048 117.736 380.144C117.736 380.24 117.712 380.288 117.664 380.288C117.408 380.288 117.224 380.32 117.112 380.384C117.016 380.432 116.968 380.528 116.968 380.672C116.968 380.928 117.16 381.456 117.544 382.256L118.84 384.992L119.704 382.712C119.992 381.96 120.136 381.392 120.136 381.008C120.136 380.528 119.896 380.288 119.416 380.288C119.368 380.288 119.344 380.24 119.344 380.144C119.344 380.048 119.368 380 119.416 380C119.56 380 119.728 380.016 119.92 380.048C120.112 380.064 120.464 380.072 120.976 380.072C121.264 380.072 121.6 380.056 121.984 380.024L122.92 380C122.952 380 122.968 380.048 122.968 380.144C122.968 380.24 122.952 380.288 122.92 380.288C122.376 380.288 121.896 380.488 121.48 380.888C121.064 381.288 120.688 381.928 120.352 382.808L119.2 385.784L122.152 392.024L125.656 382.88C125.816 382.464 125.896 382.072 125.896 381.704C125.896 381.256 125.76 380.912 125.488 380.672C125.232 380.416 124.864 380.288 124.384 380.288C124.336 380.288 124.312 380.24 124.312 380.144C124.312 380.048 124.336 380 124.384 380L125.44 380.024C126.016 380.056 126.536 380.072 127 380.072C127.32 380.072 127.688 380.056 128.104 380.024L129.136 380ZM134.303 395.288C133.167 395.288 132.151 395.024 131.255 394.496C130.375 393.952 129.687 393.232 129.191 392.336C128.711 391.44 128.471 390.464 128.471 389.408C128.471 388.176 128.783 387.112 129.407 386.216C130.047 385.32 130.863 384.64 131.855 384.176C132.847 383.712 133.863 383.48 134.903 383.48C136.039 383.48 137.039 383.76 137.903 384.32C138.767 384.864 139.431 385.576 139.895 386.456C140.375 387.336 140.615 388.264 140.615 389.24C140.615 390.312 140.335 391.312 139.775 392.24C139.215 393.168 138.447 393.912 137.471 394.472C136.511 395.016 135.455 395.288 134.303 395.288ZM134.879 394.76C135.887 394.76 136.695 394.32 137.303 393.44C137.927 392.56 138.239 391.344 138.239 389.792C138.239 388.736 138.071 387.776 137.735 386.912C137.399 386.032 136.919 385.336 136.295 384.824C135.671 384.312 134.935 384.056 134.087 384.056C133.047 384.056 132.247 384.456 131.687 385.256C131.127 386.056 130.847 387.208 130.847 388.712C130.847 389.848 131.015 390.88 131.351 391.808C131.703 392.72 132.183 393.44 132.791 393.968C133.399 394.496 134.095 394.76 134.879 394.76ZM154.783 394.712C154.831 394.712 154.855 394.76 154.855 394.856C154.855 394.952 154.831 395 154.783 395H151.231C150.975 395 150.511 394.52 149.839 393.56C149.183 392.584 148.415 391.264 147.535 389.6C147.199 389.648 146.855 389.672 146.503 389.672C146.247 389.672 146.055 389.664 145.927 389.648V393.056C145.927 393.536 145.959 393.896 146.023 394.136C146.103 394.36 146.247 394.512 146.455 394.592C146.679 394.672 147.031 394.712 147.511 394.712C147.543 394.712 147.559 394.76 147.559 394.856C147.559 394.952 147.543 395 147.511 395C147.047 395 146.679 394.992 146.407 394.976L144.823 394.952L143.335 394.976C143.047 394.992 142.655 395 142.159 395C142.127 395 142.111 394.952 142.111 394.856C142.111 394.76 142.127 394.712 142.159 394.712C142.639 394.712 142.991 394.672 143.215 394.592C143.439 394.512 143.591 394.36 143.671 394.136C143.751 393.896 143.791 393.536 143.791 393.056V385.712C143.791 385.232 143.751 384.88 143.671 384.656C143.591 384.432 143.439 384.28 143.215 384.2C142.991 384.104 142.647 384.056 142.183 384.056C142.151 384.056 142.135 384.008 142.135 383.912C142.135 383.816 142.151 383.768 142.183 383.768L143.359 383.792C143.967 383.824 144.455 383.84 144.823 383.84C145.127 383.84 145.407 383.832 145.663 383.816C145.919 383.8 146.143 383.784 146.335 383.768C146.863 383.72 147.343 383.696 147.775 383.696C148.959 383.696 149.855 383.896 150.463 384.296C151.087 384.696 151.399 385.272 151.399 386.024C151.399 386.648 151.207 387.232 150.823 387.776C150.439 388.32 149.911 388.752 149.239 389.072C150.103 390.528 150.847 391.664 151.471 392.48C152.095 393.28 152.663 393.856 153.175 394.208C153.687 394.544 154.223 394.712 154.783 394.712ZM145.927 389.216C146.071 389.232 146.319 389.24 146.671 389.24C147.615 389.24 148.271 389.024 148.639 388.592C149.007 388.16 149.191 387.52 149.191 386.672C149.191 384.976 148.527 384.128 147.199 384.128C146.671 384.128 146.327 384.24 146.167 384.464C146.007 384.672 145.927 385.104 145.927 385.76V389.216ZM158.79 392.96C158.79 393.392 158.83 393.72 158.91 393.944C159.006 394.168 159.166 394.328 159.39 394.424C159.63 394.504 159.982 394.544 160.446 394.544H161.166C162.046 394.544 162.822 394.256 163.494 393.68C164.166 393.104 164.646 392.328 164.934 391.352C164.95 391.32 164.998 391.312 165.078 391.328C165.174 391.328 165.222 391.344 165.222 391.376C165.11 392.208 165.054 393.296 165.054 394.64C165.054 394.768 165.022 394.864 164.958 394.928C164.91 394.976 164.822 395 164.694 395H155.166C155.134 395 155.118 394.952 155.118 394.856C155.118 394.76 155.134 394.712 155.166 394.712C155.614 394.712 155.942 394.672 156.15 394.592C156.358 394.512 156.494 394.36 156.558 394.136C156.638 393.896 156.678 393.536 156.678 393.056V385.712C156.678 385.232 156.638 384.88 156.558 384.656C156.494 384.432 156.358 384.28 156.15 384.2C155.942 384.104 155.614 384.056 155.166 384.056C155.134 384.056 155.118 384.008 155.118 383.912C155.118 383.816 155.134 383.768 155.166 383.768L156.318 383.792C156.958 383.824 157.454 383.84 157.806 383.84C158.222 383.84 158.75 383.824 159.39 383.792L160.47 383.768C160.518 383.768 160.542 383.816 160.542 383.912C160.542 384.008 160.518 384.056 160.47 384.056C159.974 384.056 159.606 384.104 159.366 384.2C159.142 384.28 158.99 384.44 158.91 384.68C158.83 384.904 158.79 385.256 158.79 385.736V392.96ZM172.226 395.096C171.778 395.096 171.274 395.072 170.714 395.024C170.522 395.008 170.282 394.992 169.994 394.976C169.706 394.96 169.378 394.952 169.01 394.952L167.522 394.976C167.234 394.992 166.842 395 166.346 395C166.314 395 166.298 394.952 166.298 394.856C166.298 394.76 166.314 394.712 166.346 394.712C166.842 394.712 167.202 394.672 167.426 394.592C167.65 394.512 167.802 394.36 167.882 394.136C167.962 393.896 168.002 393.536 168.002 393.056V385.712C168.002 385.232 167.962 384.88 167.882 384.656C167.802 384.432 167.65 384.28 167.426 384.2C167.202 384.104 166.85 384.056 166.37 384.056C166.338 384.056 166.322 384.008 166.322 383.912C166.322 383.816 166.338 383.768 166.37 383.768L167.522 383.792C168.162 383.824 168.658 383.84 169.01 383.84C169.49 383.84 169.986 383.816 170.498 383.768C171.138 383.736 171.618 383.72 171.938 383.72C173.282 383.72 174.442 383.96 175.418 384.44C176.394 384.92 177.138 385.584 177.65 386.432C178.162 387.28 178.418 388.24 178.418 389.312C178.418 390.416 178.154 391.408 177.626 392.288C177.098 393.168 176.362 393.856 175.418 394.352C174.49 394.848 173.426 395.096 172.226 395.096ZM171.938 394.64C173.218 394.64 174.218 394.208 174.938 393.344C175.658 392.464 176.018 391.208 176.018 389.576C176.018 388.008 175.658 386.712 174.938 385.688C174.234 384.664 173.17 384.152 171.746 384.152C171.138 384.152 170.706 384.272 170.45 384.512C170.194 384.736 170.066 385.152 170.066 385.76V392.792C170.066 393.464 170.186 393.944 170.426 394.232C170.682 394.504 171.186 394.64 171.938 394.64Z" fill="#8CE7F0"/>
<path d="M293.5 305.5C293.5 391.053 215.876 460.5 120 460.5C24.1243 460.5 -53.5 391.053 -53.5 305.5C-53.5 219.947 24.1243 150.5 120 150.5C215.876 150.5 293.5 219.947 293.5 305.5Z" stroke="#E1FF01"/>
<path d="M316.5 282.5C316.5 379.098 228.802 457.5 120.5 457.5C12.1975 457.5 -75.5 379.098 -75.5 282.5C-75.5 185.902 12.1975 107.5 120.5 107.5C228.802 107.5 316.5 185.902 316.5 282.5Z" stroke="#E1FF01"/>
<path d="M166 30C166 31.9659 164.961 33.9529 162.833 35.8751C160.705 37.7972 157.569 39.574 153.609 41.0867C145.697 44.1094 134.698 46 122.5 46C110.302 46 99.3031 44.1094 91.3906 41.0867C87.4309 39.574 84.2954 37.7972 82.1673 35.8751C80.0391 33.9529 79 31.9659 79 30C79 28.0341 80.0391 26.0471 82.1673 24.1249C84.2954 22.2028 87.4309 20.426 91.3906 18.9133C99.3031 15.8906 110.302 14 122.5 14C134.698 14 145.697 15.8906 153.609 18.9133C157.569 20.426 160.705 22.2028 162.833 24.1249C164.961 26.0471 166 28.0341 166 30Z" fill="#122023" stroke="#E1FF01" stroke-width="2"/>
<line x1="237" y1="34" x2="165" y2="34" stroke="#E1FF01" stroke-width="2"/>
<line x1="237" y1="34" x2="165" y2="34" stroke="#E1FF01" stroke-width="2"/>
<line x1="237" y1="34" x2="165" y2="34" stroke="#E1FF01" stroke-width="2"/>
<line x1="80" y1="34" x2="4" y2="34" stroke="#E1FF01" stroke-width="2"/>
<line x1="80" y1="34" x2="4" y2="34" stroke="#E1FF01" stroke-width="2"/>
<line x1="80" y1="34" x2="4" y2="34" stroke="#E1FF01" stroke-width="2"/>
<rect x="65" y="10" width="121" height="23" fill="#122023"/>
<path d="M117.384 34.712C117.432 34.712 117.456 34.76 117.456 34.856C117.456 34.952 117.432 35 117.384 35C116.936 35 116.592 34.992 116.352 34.976L114.936 34.952L112.992 34.976C112.704 34.992 112.296 35 111.768 35C111.72 35 111.696 34.952 111.696 34.856C111.696 34.76 111.72 34.712 111.768 34.712C112.392 34.712 112.704 34.576 112.704 34.304C112.704 34.16 112.632 33.984 112.488 33.776L109.08 28.544L106.68 31.952C106.136 32.736 105.864 33.352 105.864 33.8C105.864 34.088 105.976 34.312 106.2 34.472C106.424 34.632 106.752 34.712 107.184 34.712C107.216 34.712 107.232 34.76 107.232 34.856C107.232 34.952 107.216 35 107.184 35C106.672 35 106.28 34.992 106.008 34.976L104.28 34.952L103.176 34.976C102.984 34.992 102.664 35 102.216 35C102.168 35 102.144 34.952 102.144 34.856C102.144 34.76 102.168 34.712 102.216 34.712C102.728 34.712 103.312 34.48 103.968 34.016C104.64 33.536 105.328 32.808 106.032 31.832L108.792 28.088L104.928 22.16C104.496 21.488 104.08 21.008 103.68 20.72C103.28 20.432 102.84 20.288 102.36 20.288C102.312 20.288 102.288 20.24 102.288 20.144C102.288 20.048 102.312 20 102.36 20L103.344 20.024C103.792 20.056 104.12 20.072 104.328 20.072C104.872 20.072 105.56 20.056 106.392 20.024L107.712 20C107.744 20 107.76 20.048 107.76 20.144C107.76 20.24 107.744 20.288 107.712 20.288C107.392 20.288 107.152 20.32 106.992 20.384C106.832 20.432 106.752 20.536 106.752 20.696C106.752 20.824 106.824 21.008 106.968 21.248L110.256 26.288L112.488 23.12C113.048 22.32 113.328 21.68 113.328 21.2C113.328 20.592 112.896 20.288 112.032 20.288C112 20.288 111.984 20.24 111.984 20.144C111.984 20.048 112 20 112.032 20L113.208 20.024C113.848 20.056 114.424 20.072 114.936 20.072C115.256 20.072 115.624 20.056 116.04 20.024L117 20C117.048 20 117.072 20.048 117.072 20.144C117.072 20.24 117.048 20.288 117 20.288C116.472 20.288 115.872 20.536 115.2 21.032C114.528 21.512 113.84 22.248 113.136 23.24L110.544 26.744L114.624 33.008C115.024 33.616 115.44 34.056 115.872 34.328C116.304 34.584 116.808 34.712 117.384 34.712ZM132.97 34.712C133.018 34.712 133.042 34.76 133.042 34.856C133.042 34.952 133.018 35 132.97 35C132.522 35 132.178 34.992 131.938 34.976L130.522 34.952L128.578 34.976C128.29 34.992 127.882 35 127.354 35C127.306 35 127.282 34.952 127.282 34.856C127.282 34.76 127.306 34.712 127.354 34.712C127.978 34.712 128.29 34.576 128.29 34.304C128.29 34.16 128.218 33.984 128.074 33.776L124.666 28.544L122.266 31.952C121.722 32.736 121.45 33.352 121.45 33.8C121.45 34.088 121.562 34.312 121.786 34.472C122.01 34.632 122.338 34.712 122.77 34.712C122.802 34.712 122.818 34.76 122.818 34.856C122.818 34.952 122.802 35 122.77 35C122.258 35 121.866 34.992 121.594 34.976L119.866 34.952L118.762 34.976C118.57 34.992 118.25 35 117.802 35C117.754 35 117.73 34.952 117.73 34.856C117.73 34.76 117.754 34.712 117.802 34.712C118.314 34.712 118.898 34.48 119.554 34.016C120.226 33.536 120.914 32.808 121.618 31.832L124.378 28.088L120.514 22.16C120.082 21.488 119.666 21.008 119.266 20.72C118.866 20.432 118.426 20.288 117.946 20.288C117.898 20.288 117.874 20.24 117.874 20.144C117.874 20.048 117.898 20 117.946 20L118.93 20.024C119.378 20.056 119.706 20.072 119.914 20.072C120.458 20.072 121.146 20.056 121.978 20.024L123.298 20C123.33 20 123.346 20.048 123.346 20.144C123.346 20.24 123.33 20.288 123.298 20.288C122.978 20.288 122.738 20.32 122.578 20.384C122.418 20.432 122.338 20.536 122.338 20.696C122.338 20.824 122.41 21.008 122.554 21.248L125.842 26.288L128.074 23.12C128.634 22.32 128.914 21.68 128.914 21.2C128.914 20.592 128.482 20.288 127.618 20.288C127.586 20.288 127.57 20.24 127.57 20.144C127.57 20.048 127.586 20 127.618 20L128.794 20.024C129.434 20.056 130.01 20.072 130.522 20.072C130.842 20.072 131.21 20.056 131.626 20.024L132.586 20C132.634 20 132.658 20.048 132.658 20.144C132.658 20.24 132.634 20.288 132.586 20.288C132.058 20.288 131.458 20.536 130.786 21.032C130.114 21.512 129.426 22.248 128.722 23.24L126.13 26.744L130.21 33.008C130.61 33.616 131.026 34.056 131.458 34.328C131.89 34.584 132.394 34.712 132.97 34.712ZM138.404 33.056C138.404 33.552 138.444 33.912 138.524 34.136C138.604 34.36 138.764 34.512 139.004 34.592C139.26 34.672 139.66 34.712 140.204 34.712C140.252 34.712 140.276 34.76 140.276 34.856C140.276 34.952 140.252 35 140.204 35C139.692 35 139.284 34.992 138.98 34.976L137.204 34.952L135.476 34.976C135.172 34.992 134.756 35 134.228 35C134.18 35 134.156 34.952 134.156 34.856C134.156 34.76 134.18 34.712 134.228 34.712C134.772 34.712 135.164 34.672 135.404 34.592C135.66 34.512 135.836 34.36 135.932 34.136C136.028 33.896 136.076 33.536 136.076 33.056V21.944C136.076 21.464 136.028 21.112 135.932 20.888C135.836 20.664 135.66 20.512 135.404 20.432C135.164 20.336 134.772 20.288 134.228 20.288C134.18 20.288 134.156 20.24 134.156 20.144C134.156 20.048 134.18 20 134.228 20L135.476 20.024C136.18 20.056 136.756 20.072 137.204 20.072C137.7 20.072 138.3 20.056 139.004 20.024L140.204 20C140.252 20 140.276 20.048 140.276 20.144C140.276 20.24 140.252 20.288 140.204 20.288C139.676 20.288 139.284 20.336 139.028 20.432C138.788 20.528 138.62 20.696 138.524 20.936C138.444 21.16 138.404 21.512 138.404 21.992V33.056Z" fill="#8CE7F0"/>
<line y1="369" x2="237" y2="369" stroke="#E1FF01" stroke-width="2"/>
<rect x="-3" y="90" width="81" height="60" fill="#122023"/>
<rect x="-26" y="146" width="81" height="60" fill="#122023"/>
<rect x="4" y="99" width="29" height="76" fill="#122023"/>
<path d="M36.5 175.5C36.5 189.316 25.5217 200.5 12 200.5C-1.52169 200.5 -12.5 189.316 -12.5 175.5C-12.5 161.684 -1.52169 150.5 12 150.5C25.5217 150.5 36.5 161.684 36.5 175.5Z" stroke="#8CE7F0"/>
<path d="M84.5 113C84.5 143.108 60.5386 167.5 31 167.5C1.46138 167.5 -22.5 143.108 -22.5 113C-22.5 82.8918 1.46138 58.5 31 58.5C60.5386 58.5 84.5 82.8918 84.5 113Z" fill="#122023" stroke="#8CE7F0"/>
<circle cx="29.5" cy="112.5" r="48" fill="#122023" stroke="#8CE7F0"/>
<line x1="32.4438" y1="112.74" x2="60.541" y2="272.087" stroke="#8CE7F0"/>
<line x1="31.857" y1="112.166" x2="237.969" y2="75.8233" stroke="#8CE7F0"/>
<line x1="32.3033" y1="113.326" x2="18.5077" y2="35.0868" stroke="#8CE7F0"/>
<line x1="-173.087" y1="148.851" x2="33.0255" y2="112.508" stroke="#8CE7F0"/>
<rect x="2" y="2" width="237" height="409" rx="22" stroke="#E1FF01" stroke-width="4"/>
</g>
<defs>
<clipPath id="clip0_18_244">
<path d="M0 24C0 10.7452 10.7452 0 24 0H217C230.255 0 241 10.7452 241 24V389C241 402.255 230.255 413 217 413H24C10.7452 413 0 402.255 0 389V24Z" fill="white"/>
</clipPath>
</defs>
</svg>
